<svg width="20" height="20" viewBox="0 0 20 20" fill="none" xmlns="http://www.w3.org/2000/svg">
<path d="M9.98604 20C7.8678 20 5.75476 20 3.63652 20C1.51307 20 -0.136766 18.2863 0.00896071 16.1715C0.0974377 14.8432 0.774026 13.8431 1.95025 13.2233C3.40231 12.4628 4.95326 11.9783 6.56667 11.7127C7.26928 11.5981 7.64921 11.0355 7.43582 10.4313C7.35776 10.2073 7.20162 10.051 7.01426 9.92083C5.6871 9.01969 4.91163 7.76956 4.6462 6.19127C4.1882 3.42536 6.17112 0.612567 8.93993 0.096888C12.0158 -0.476088 14.9095 1.55016 15.3311 4.64424C15.6278 6.84759 14.8002 8.6134 12.9891 9.91041C12.5571 10.2229 12.3957 10.6084 12.5467 11.0459C12.6872 11.4522 12.9943 11.6398 13.4002 11.7075C15.0032 11.9575 16.5281 12.4523 17.9802 13.1816C19.3386 13.8639 20.1609 15.3641 19.9735 16.7757C19.7549 18.3905 18.688 19.5729 17.1423 19.9167C16.882 19.974 16.6114 19.9948 16.3408 19.9948C14.2173 20 12.0991 20 9.98604 20Z" fill="#2A79CC"/>
</svg>
